<svg xmlns="http://www.w3.org/2000/svg" viewBox="0 0 100 100"><title>extra</title><g id="Layer_9" data-name="Layer 9"><g id="Layer_7" data-name="Layer 7"><g id="surface1"><path d="M95.35,6.5a3.71,3.71,0,0,0-2-.75c-1,0-4.72,0-26.6,18.89-9.2,7.71-19.39,17.15-28.34,25.61l-7.21,7.21C17.54,59,15.8,67.91,14.31,74.87c-1.24,6-2,9.2-7,9.7a1.6,1.6,0,0,0-1.49,1.49,1.41,1.41,0,0,0,1,1.74,44.32,44.32,0,0,0,14.92,3c8.7,0,19.64-3.48,23.12-19.39C55.33,60.7,68.5,46,78.94,33.6c5.47-6.71,9.94-12.43,12.68-16.66C95.85,10.73,96.84,8,95.35,6.5ZM39.66,54l8.7,8.95c-1.74,1.74-3.23,3.48-5,5.22L34.44,59C35.94,57.47,37.68,55.73,39.66,54ZM21.76,87.3a29.83,29.83,0,0,1-8.95-1.24c3.23-2.24,4-6.46,4.72-10.44,1.49-7,2.73-13.42,13.92-14.92L41.65,71.14C38.92,81.83,32.45,87.3,21.76,87.3ZM75,33.1c-7.46,8.95-16.16,18.65-24.11,27.35L41.9,51.5c8.45-8,18.4-16.91,27.1-24.36C83.92,14.21,89.88,10.73,92.12,9.49,91.13,12,87.65,17.94,75,33.1Z"/></g></g></g></svg>