<svg xmlns="http://www.w3.org/2000/svg" xmlns:xlink="http://www.w3.org/1999/xlink" viewBox="0 0 100 100"><defs><style>.cls-1,.cls-3,.cls-4{fill:none;}.cls-2{clip-path:url(#clip-path);}.cls-3,.cls-4{stroke:#000;stroke-miterlimit:10;}.cls-4{stroke-width:3px;}</style><clipPath id="clip-path"><polygon class="cls-1" points="50.75 88.88 44.13 82.26 36.68 88.88 30.06 82.06 22.4 88.88 5.85 72.13 12.96 65.05 5.85 57.23 12.89 50.2 5.85 43.16 12.68 35.3 5.85 28.27 22.4 11.51 30.06 18.34 36.68 11.51 44.13 18.13 50.95 11.72 57.37 18.13 64.81 11.51 71.43 18.34 79.09 11.51 95.64 28.27 88.81 35.3 95.64 43.16 88.6 50.2 95.64 57.23 88.53 65.05 95.64 72.13 79.09 88.88 71.43 82.06 64.81 88.88 57.37 82.26 50.75 88.88"/></clipPath></defs><title>materials</title><g id="Layer_9" data-name="Layer 9"><g id="Layer_10" data-name="Layer 10"><g class="cls-2"><line class="cls-3" x1="57.17" y1="-22.85" x2="-24.64" y2="58.97"/><line class="cls-3" x1="60.87" y1="-19.15" x2="-20.95" y2="62.67"/><line class="cls-3" x1="64.57" y1="-15.45" x2="-17.25" y2="66.36"/><line class="cls-3" x1="68.26" y1="-11.76" x2="-13.55" y2="70.06"/><line class="cls-3" x1="71.96" y1="-8.06" x2="-9.86" y2="73.76"/><line class="cls-3" x1="75.66" y1="-4.36" x2="-6.16" y2="77.45"/><line class="cls-3" x1="79.36" y1="-0.67" x2="-2.46" y2="81.15"/><line class="cls-3" x1="83.05" y1="3.03" x2="1.24" y2="84.85"/><line class="cls-3" x1="86.75" y1="6.73" x2="4.93" y2="88.54"/><line class="cls-3" x1="90.45" y1="10.42" x2="8.63" y2="92.24"/><line class="cls-3" x1="94.14" y1="14.12" x2="12.33" y2="95.94"/><line class="cls-3" x1="97.84" y1="17.82" x2="16.02" y2="99.64"/><line class="cls-3" x1="101.54" y1="21.52" x2="19.72" y2="103.33"/><line class="cls-3" x1="105.23" y1="25.21" x2="23.42" y2="107.03"/><line class="cls-3" x1="108.93" y1="28.91" x2="27.11" y2="110.73"/><line class="cls-3" x1="112.63" y1="32.61" x2="30.81" y2="114.42"/><line class="cls-3" x1="116.32" y1="36.3" x2="34.51" y2="118.12"/><line class="cls-3" x1="120.02" y1="40" x2="38.21" y2="121.82"/></g><polygon class="cls-4" points="50.75 88.88 44.13 82.26 36.68 88.88 30.06 82.06 22.4 88.88 5.85 72.13 12.96 65.05 5.85 57.23 12.89 50.2 5.85 43.16 12.68 35.3 5.85 28.27 22.4 11.51 30.06 18.34 36.68 11.51 44.13 18.13 50.95 11.72 57.37 18.13 64.81 11.51 71.43 18.34 79.09 11.51 95.64 28.27 88.81 35.3 95.64 43.16 88.6 50.2 95.64 57.23 88.53 65.05 95.64 72.13 79.09 88.88 71.43 82.06 64.81 88.88 57.37 82.26 50.75 88.88"/></g></g></svg>