<svg xmlns="http://www.w3.org/2000/svg" viewBox="0 0 100 100"><title>style</title><g id="Layer_9" data-name="Layer 9"><path d="M6.12,80.06a10.49,10.49,0,0,0,1.47,5.39,10.69,10.69,0,0,0,3.92,4.17,11.54,11.54,0,0,0,11.27,0l12-7.11a10.92,10.92,0,0,0,0-19.12,7.34,7.34,0,0,0-2.45-1l1-.74c.25,0,.25,0,.49-.25l6.86-3.92L79.88,80.3a1.56,1.56,0,0,0,1.47,0L94.1,76.87a1.6,1.6,0,0,0,.49-2.94L53.42,50.16,94.59,26.39a1.6,1.6,0,0,0-.49-2.94L81.35,20a1.56,1.56,0,0,0-1.47,0L40.67,42.81l-6.86-3.92c-.25-.25-.25-.25-.49-.25l-13-7.6c.74-.25,1.72-.74,2.45-1A10.69,10.69,0,0,0,26.7,25.9a11.38,11.38,0,0,0,1.47-5.64,10.9,10.9,0,0,0-5.39-9.56,11.54,11.54,0,0,0-11.27,0,11.44,11.44,0,0,0-5.39,9.56,10.9,10.9,0,0,0,5.39,9.56v.25L31.36,41.34l4.41,8.82L31.36,59l-7.6,4.41L11.51,70.25A11.3,11.3,0,0,0,6.12,80.06Zm3.43,0a7.42,7.42,0,0,1,3.68-6.62l12.25-7.11a7.09,7.09,0,0,1,7.6,0,7.54,7.54,0,0,1,0,13.23l-12,7.11a8.82,8.82,0,0,1-7.84,0,10.45,10.45,0,0,1-2.7-2.94A6.38,6.38,0,0,1,9.55,80.06Zm0-59.8a8,8,0,0,1,3.68-6.62,8.82,8.82,0,0,1,7.84,0,8,8,0,0,1,3.68,6.62,7.19,7.19,0,0,1-1,3.92,5.75,5.75,0,0,1-2.7,2.7,7.52,7.52,0,0,1-7.84,0A7.42,7.42,0,0,1,9.55,20.26Zm28.92,29.9a3.35,3.35,0,0,1,3.43-3.43,3.43,3.43,0,1,1,0,6.86A3.35,3.35,0,0,1,38.47,50.16Zm5.64,5.39L50,52.12,89.2,74.67l-8.09,2.21Zm0-10.78,37-21.32,8.09,2.21L50,48.2Z"/></g></svg>